<svg width="1068" height="336" viewBox="0 0 1068 336" fill="none" xmlns="http://www.w3.org/2000/svg">
<g filter="url(#filter0_d_1_3)">
<path d="M4.09375 328V0.727263H234.207V72.3182H92.9432V128.568H220.145V200.159H92.9432V328H4.09375ZM260.137 328V0.727263H401.401C425.691 0.727263 446.944 5.14843 465.162 13.9908C483.379 22.8331 497.548 35.5639 507.669 52.1832C517.789 68.8026 522.85 88.7244 522.85 111.949C522.85 135.386 517.63 155.148 507.189 171.235C496.855 187.322 482.314 199.467 463.564 207.67C444.92 215.873 423.134 219.974 398.205 219.974H313.83V150.94H380.307C390.748 150.94 399.643 149.662 406.994 147.105C414.451 144.442 420.151 140.234 424.093 134.481C428.141 128.728 430.165 121.217 430.165 111.949C430.165 102.574 428.141 94.9567 424.093 89.0973C420.151 83.1314 414.451 78.7635 406.994 75.9936C399.643 73.1172 390.748 71.679 380.307 71.679H348.986V328H260.137ZM451.898 177.787L533.716 328H437.196L357.296 177.787H451.898ZM553.973 328V0.727263H789.839V72.3182H642.822V128.568H777.694V200.159H642.822V256.409H789.2V328H553.973ZM827.154 328V0.727263H1063.02V72.3182H916.004V128.568H1050.88V200.159H916.004V256.409H1062.38V328H827.154Z" fill="url(#paint0_linear_1_3)" shape-rendering="crispEdges"/>
<path d="M4.09375 328H1.09375V331H4.09375V328ZM4.09375 0.727263V-2.27274H1.09375V0.727263H4.09375ZM234.207 0.727263H237.207V-2.27274H234.207V0.727263ZM234.207 72.3182V75.3182H237.207V72.3182H234.207ZM92.9432 72.3182V69.3182H89.9432V72.3182H92.9432ZM92.9432 128.568H89.9432V131.568H92.9432V128.568ZM220.145 128.568H223.145V125.568H220.145V128.568ZM220.145 200.159V203.159H223.145V200.159H220.145ZM92.9432 200.159V197.159H89.9432V200.159H92.9432ZM92.9432 328V331H95.9432V328H92.9432ZM7.09375 328V0.727263H1.09375V328H7.09375ZM4.09375 3.72726H234.207V-2.27274H4.09375V3.72726ZM231.207 0.727263V72.3182H237.207V0.727263H231.207ZM234.207 69.3182H92.9432V75.3182H234.207V69.3182ZM89.9432 72.3182V128.568H95.9432V72.3182H89.9432ZM92.9432 131.568H220.145V125.568H92.9432V131.568ZM217.145 128.568V200.159H223.145V128.568H217.145ZM220.145 197.159H92.9432V203.159H220.145V197.159ZM89.9432 200.159V328H95.9432V200.159H89.9432ZM92.9432 325H4.09375V331H92.9432V325ZM260.137 328H257.137V331H260.137V328ZM260.137 0.727263V-2.27274H257.137V0.727263H260.137ZM465.162 13.9908L463.852 16.6896L465.162 13.9908ZM507.669 52.1832L510.231 50.6229L510.231 50.6229L507.669 52.1832ZM507.189 171.235L504.673 169.602L504.665 169.614L507.189 171.235ZM463.564 207.67L462.361 204.921L462.355 204.924L463.564 207.67ZM313.83 219.974H310.83V222.974H313.83V219.974ZM313.83 150.94V147.94H310.83V150.94H313.83ZM406.994 147.105L407.98 149.939L407.991 149.935L408.003 149.93L406.994 147.105ZM424.093 134.481L421.639 132.754L421.628 132.77L421.618 132.785L424.093 134.481ZM424.093 89.0973L421.59 90.7511L421.607 90.777L421.624 90.8026L424.093 89.0973ZM406.994 75.9936L405.901 78.7873L405.925 78.7968L405.949 78.8059L406.994 75.9936ZM348.986 71.679V68.679H345.986V71.679H348.986ZM348.986 328V331H351.986V328H348.986ZM451.898 177.787L454.533 176.352L453.68 174.787H451.898V177.787ZM533.716 328V331H538.766L536.351 326.565L533.716 328ZM437.196 328L434.548 329.409L435.394 331H437.196V328ZM357.296 177.787V174.787H352.302L354.647 179.196L357.296 177.787ZM263.137 328V0.727263H257.137V328H263.137ZM260.137 3.72726H401.401V-2.27274H260.137V3.72726ZM401.401 3.72726C425.326 3.72726 446.116 8.08114 463.852 16.6896L466.472 11.2919C447.772 2.21572 426.055 -2.27274 401.401 -2.27274V3.72726ZM463.852 16.6896C481.573 25.2913 495.298 37.6368 505.106 53.7436L510.231 50.6229C499.798 33.4911 485.185 20.3749 466.472 11.2919L463.852 16.6896ZM505.106 53.7436C514.89 69.8089 519.85 89.1675 519.85 111.949H525.85C525.85 88.2813 520.689 67.7962 510.231 50.6229L505.106 53.7436ZM519.85 111.949C519.85 134.936 514.734 154.1 504.673 169.602L509.706 172.868C520.525 156.197 525.85 135.836 525.85 111.949H519.85ZM504.665 169.614C494.674 185.167 480.609 196.938 462.361 204.921L464.766 210.418C484.018 201.995 499.037 189.476 509.713 172.857L504.665 169.614ZM462.355 204.924C444.168 212.926 422.809 216.974 398.205 216.974V222.974C423.459 222.974 445.672 218.819 464.772 210.416L462.355 204.924ZM398.205 216.974H313.83V222.974H398.205V216.974ZM316.83 219.974V150.94H310.83V219.974H316.83ZM313.83 153.94H380.307V147.94H313.83V153.94ZM380.307 153.94C390.976 153.94 400.224 152.636 407.98 149.939L406.008 144.272C399.062 146.688 390.519 147.94 380.307 147.94V153.94ZM408.003 149.93C415.972 147.084 422.221 142.52 426.567 136.177L421.618 132.785C418.081 137.947 412.931 141.799 405.985 144.28L408.003 149.93ZM426.546 136.207C431.048 129.81 433.165 121.641 433.165 111.949H427.165C427.165 120.794 425.234 127.645 421.639 132.754L426.546 136.207ZM433.165 111.949C433.165 102.155 431.05 93.8893 426.561 87.392L421.624 90.8026C425.232 96.0241 427.165 102.993 427.165 111.949H433.165ZM426.596 87.4435C422.264 80.8871 416.022 76.1467 408.039 73.1813L405.949 78.8059C412.88 81.3803 418.038 85.3757 421.59 90.7511L426.596 87.4435ZM408.087 73.1999C400.296 70.151 391.008 68.679 380.307 68.679V74.679C390.488 74.679 398.991 76.0834 405.901 78.7873L408.087 73.1999ZM380.307 68.679H348.986V74.679H380.307V68.679ZM345.986 71.679V328H351.986V71.679H345.986ZM348.986 325H260.137V331H348.986V325ZM449.264 179.222L531.082 329.435L536.351 326.565L454.533 176.352L449.264 179.222ZM533.716 325H437.196V331H533.716V325ZM439.845 326.591L359.944 176.378L354.647 179.196L434.548 329.409L439.845 326.591ZM357.296 180.787H451.898V174.787H357.296V180.787ZM553.973 328H550.973V331H553.973V328ZM553.973 0.727263V-2.27274H550.973V0.727263H553.973ZM789.839 0.727263H792.839V-2.27274H789.839V0.727263ZM789.839 72.3182V75.3182H792.839V72.3182H789.839ZM642.822 72.3182V69.3182H639.822V72.3182H642.822ZM642.822 128.568H639.822V131.568H642.822V128.568ZM777.694 128.568H780.694V125.568H777.694V128.568ZM777.694 200.159V203.159H780.694V200.159H777.694ZM642.822 200.159V197.159H639.822V200.159H642.822ZM642.822 256.409H639.822V259.409H642.822V256.409ZM789.2 256.409H792.2V253.409H789.2V256.409ZM789.2 328V331H792.2V328H789.2ZM556.973 328V0.727263H550.973V328H556.973ZM553.973 3.72726H789.839V-2.27274H553.973V3.72726ZM786.839 0.727263V72.3182H792.839V0.727263H786.839ZM789.839 69.3182H642.822V75.3182H789.839V69.3182ZM639.822 72.3182V128.568H645.822V72.3182H639.822ZM642.822 131.568H777.694V125.568H642.822V131.568ZM774.694 128.568V200.159H780.694V128.568H774.694ZM777.694 197.159H642.822V203.159H777.694V197.159ZM639.822 200.159V256.409H645.822V200.159H639.822ZM642.822 259.409H789.2V253.409H642.822V259.409ZM786.2 256.409V328H792.2V256.409H786.2ZM789.2 325H553.973V331H789.2V325ZM827.154 328H824.154V331H827.154V328ZM827.154 0.727263V-2.27274H824.154V0.727263H827.154ZM1063.02 0.727263H1066.02V-2.27274H1063.02V0.727263ZM1063.02 72.3182V75.3182H1066.02V72.3182H1063.02ZM916.004 72.3182V69.3182H913.004V72.3182H916.004ZM916.004 128.568H913.004V131.568H916.004V128.568ZM1050.88 128.568H1053.88V125.568H1050.88V128.568ZM1050.88 200.159V203.159H1053.88V200.159H1050.88ZM916.004 200.159V197.159H913.004V200.159H916.004ZM916.004 256.409H913.004V259.409H916.004V256.409ZM1062.38 256.409H1065.38V253.409H1062.38V256.409ZM1062.38 328V331H1065.38V328H1062.38ZM830.154 328V0.727263H824.154V328H830.154ZM827.154 3.72726H1063.02V-2.27274H827.154V3.72726ZM1060.02 0.727263V72.3182H1066.02V0.727263H1060.02ZM1063.02 69.3182H916.004V75.3182H1063.02V69.3182ZM913.004 72.3182V128.568H919.004V72.3182H913.004ZM916.004 131.568H1050.88V125.568H916.004V131.568ZM1047.88 128.568V200.159H1053.88V128.568H1047.88ZM1050.88 197.159H916.004V203.159H1050.88V197.159ZM913.004 200.159V256.409H919.004V200.159H913.004ZM916.004 259.409H1062.38V253.409H916.004V259.409ZM1059.38 256.409V328H1065.38V256.409H1059.38ZM1062.38 325H827.154V331H1062.38V325Z" fill="black"/>
</g>
<defs>
<filter id="filter0_d_1_3" x="0.09375" y="0.727264" width="1066.93" height="335.273" filterUnits="userSpaceOnUse" color-interpolation-filters="sRGB">
<feFlood flood-opacity="0" result="BackgroundImageFix"/>
<feColorMatrix in="SourceAlpha" type="matrix" values="0 0 0 0 0 0 0 0 0 0 0 0 0 0 0 0 0 0 127 0" result="hardAlpha"/>
<feOffset dy="4"/>
<feGaussianBlur stdDeviation="2"/>
<feComposite in2="hardAlpha" operator="out"/>
<feColorMatrix type="matrix" values="0 0 0 0 0 0 0 0 0 0 0 0 0 0 0 0 0 0 0.25 0"/>
<feBlend mode="normal" in2="BackgroundImageFix" result="effect1_dropShadow_1_3"/>
<feBlend mode="normal" in="SourceGraphic" in2="effect1_dropShadow_1_3" result="shape"/>
</filter>
<linearGradient id="paint0_linear_1_3" x1="556" y1="-108" x2="556" y2="320" gradientUnits="userSpaceOnUse">
<stop offset="0.479167" stop-color="#61B3FF"/>
<stop offset="1" stop-color="#0047FF" stop-opacity="0"/>
</linearGradient>
</defs>
</svg>
